{
  "accessors": [
    {
      "bufferView": 2,
      "componentType": 5126,
      "count": 136,
      "max": [
        9.3540000915527344,
        -36.614898681640625,
        150.89579772949219
      ],
      "min": [
        4.2797999382019043,
        -39.296001434326172,
        149.73759460449219
      ],
      "type": "VEC3"
    },
    {
      "bufferView": 2,
      "byteOffset": 1632,
      "componentType": 5126,
      "count": 136,
      "max": [
        0.99588894844055176,
        0.019999472424387932,
        0.99906623363494873
      ],
      "min": [
        -0.9353753924369812,
        -0.081403918564319611,
        -0.99960798025131226
      ],
      "type": "VEC3"
    },
    {
      "bufferView": 3,
      "componentType": 5126,
      "count": 136,
      "max": [
        0,
        0,
        0,
        1
      ],
      "min": [
        0,
        0,
        0,
        1
      ],
      "type": "VEC4"
    },
    {
      "bufferView": 1,
      "componentType": 5126,
      "count": 136,
      "max": [
        0.21269999444484711,
        0.74500000476837158
      ],
      "min": [
        0.17589999735355377,
        0.74199998378753662
      ],
      "type": "VEC2"
    },
    {
      "bufferView": 0,
      "componentType": 5125,
      "count": 204,
      "max": [
        135
      ],
      "min": [
        0
      ],
      "type": "SCALAR"
    },
    {
      "bufferView": 2,
      "byteOffset": 3264,
      "componentType": 5126,
      "count": 10011,
      "max": [
        34.668098449707031,
        44.398899078369141,
        177.28709411621094
      ],
      "min": [
        -35.997299194335938,
        -42.229198455810547,
        2.3538000583648682
      ],
      "type": "VEC3"
    },
    {
      "bufferView": 2,
      "byteOffset": 123396,
      "componentType": 5126,
      "count": 10011,
      "max": [
        0.99984031915664673,
        0.99980765581130981,
        0.99957960844039917
      ],
      "min": [
        -0.99997138977050781,
        -0.99994194507598877,
        -0.99990057945251465
      ],
      "type": "VEC3"
    },
    {
      "bufferView": 3,
      "byteOffset": 2176,
      "componentType": 5126,
      "count": 10011,
      "max": [
        0.99957996606826782,
        0.99971812963485718,
        0.99995070695877075,
        1
      ],
      "min": [
        -0.99997633695602417,
        -0.99997985363006592,
        -0.99643510580062866,
        -1
      ],
      "type": "VEC4"
    },
    {
      "bufferView": 1,
      "byteOffset": 1088,
      "componentType": 5126,
      "count": 10011,
      "max": [
        0.99809998273849487,
        0.99629998207092285
      ],
      "min": [
        0.0020000000949949026,
        0.0034000000450760126
      ],
      "type": "VEC2"
    },
    {
      "bufferView": 0,
      "byteOffset": 816,
      "componentType": 5125,
      "count": 49602,
      "max": [
        10010
      ],
      "min": [
        0
      ],
      "type": "SCALAR"
    }
  ],
  "asset": {
    "extras": {
      "author": "Yulius Krisna (https://sketchfab.com/yuliuskrisna)",
      "license": "CC-BY-4.0 (http://creativecommons.org/licenses/by/4.0/)",
      "source": "https://sketchfab.com/models/3837291669734bb295dee3c0884e78d3",
      "title": "Joker Final Stand"
    },
    "generator": "Sketchfab-3.29.4",
    "version": "2.0"
  },
  "bufferViews": [
    {
      "buffer": 0,
      "byteLength": 199224,
      "byteOffset": 0,
      "name": "floatBufferViews",
      "target": 34963
    },
    {
      "buffer": 0,
      "byteLength": 81176,
      "byteOffset": 199224,
      "byteStride": 8,
      "name": "floatBufferViews",
      "target": 34962
    },
    {
      "buffer": 0,
      "byteLength": 243528,
      "byteOffset": 280400,
      "byteStride": 12,
      "name": "floatBufferViews",
      "target": 34962
    },
    {
      "buffer": 0,
      "byteLength": 162352,
      "byteOffset": 523928,
      "byteStride": 16,
      "name": "floatBufferViews",
      "target": 34962
    }
  ],
  "buffers": [
    {
      "byteLength": 686280,
      "uri": "scene.bin"
    }
  ],
  "images": [
    {
      "uri": "textures/Material__72_baseColor.png"
    },
    {
      "uri": "textures/Material__72_normal.jpeg"
    }
  ],
  "materials": [
    {
      "alphaCutoff": 0.94999999999999996,
      "alphaMode": "MASK",
      "doubleSided": true,
      "name": "Material__72",
      "normalTexture": {
        "index": 1,
        "scale": 1,
        "texCoord": 0
      },
      "pbrMetallicRoughness": {
        "baseColorFactor": [
          1,
          1,
          1,
          1
        ],
        "baseColorTexture": {
          "index": 0,
          "texCoord": 0
        },
        "metallicFactor": 0,
        "roughnessFactor": 0.59999999999999998
      }
    }
  ],
  "meshes": [
    {
      "primitives": [
        {
          "attributes": {
            "NORMAL": 1,
            "POSITION": 0,
            "TANGENT": 2,
            "TEXCOORD_0": 3
          },
          "indices": 4,
          "material": 0,
          "mode": 4
        }
      ]
    },
    {
      "primitives": [
        {
          "attributes": {
            "NORMAL": 6,
            "POSITION": 5,
            "TANGENT": 7,
            "TEXCOORD_0": 8
          },
          "indices": 9,
          "material": 0,
          "mode": 4
        }
      ]
    }
  ],
  "nodes": [
    {
      "children": [
        1
      ],
      "name": "RootNode (gltf orientation matrix)",
      "rotation": [
        -0.70710678118654746,
        -0,
        -0,
        0.70710678118654757
      ]
    },
    {
      "children": [
        2
      ],
      "name": "RootNode (model correction matrix)"
    },
    {
      "children": [
        3,
        4
      ],
      "name": "Joker.obj.cleaner"
    },
    {
      "mesh": 0,
      "name": ""
    },
    {
      "mesh": 1,
      "name": ""
    }
  ],
  "samplers": [
    {
      "magFilter": 9729,
      "minFilter": 9987,
      "wrapS": 10497,
      "wrapT": 10497
    }
  ],
  "scene": 0,
  "scenes": [
    {
      "name": "OSG_Scene",
      "nodes": [
        0
      ]
    }
  ],
  "textures": [
    {
      "sampler": 0,
      "source": 0
    },
    {
      "sampler": 0,
      "source": 1
    }
  ]
}

